# xmcd
#
# Track frame offsets: 
#        150
#        13987
#        29525
#        45552
#        59245
#        71837
#        87097
#        102902
#        116287
#        130320
#        143685
#        157755
#        173615
#        186452
#        204052
#        220375
#
# Disc length: 3076 seconds
#
# Revision: 1
# Processed by: cddbd v1.5.2PL0 Copyright (c) Steve Scherf et al.
# Submitted via: ExactAudioCopy v1.0b4
#
DISCID=e20c0210
DTITLE=Barbara Mandrell - The Country Collection
DYEAR=1985
DGENRE=Country
TTITLE0=Love Is Fair
TTITLE1=He's Out Of My Life
TTITLE2=Bedroom Reunion
TTITLE3=Fooled By A Feeling
TTITLE4=My Bonnie Lies Over And Over
TTITLE5=Darlin'
TTITLE6=After The Lovin'
TTITLE7=Married But Not To Each Other
TTITLE8=I Don't Want To Be Right
TTITLE9=Hold Me
TTITLE10=It's A Crying Shame
TTITLE11=She's Out There Dancin' Alone
TTITLE12=No Walls, No Ceilings, No Floor
TTITLE13=Years - Love Is Fair
TTITLE14=Selfish
TTITLE15=Sleeping Single In A Double Bed
EXTD=
EXTT0=
EXTT1=
EXTT2=
EXTT3=
EXTT4=
EXTT5=
EXTT6=
EXTT7=
EXTT8=
EXTT9=
EXTT10=
EXTT11=
EXTT12=
EXTT13=
EXTT14=
EXTT15=
PLAYORDER=
